Coordinates
version=1
nRows=65
nColumns=12
inDegrees=yes

Units are S.I. units (second, meters, Newtons, ...)
Angles are in degrees

endheader
time	SC_y	SC_z	SC_x	AC_y	AC_z	AC_x	GH_y	GH_z	GH_yy	EL_x	PS_y
       0.0              -50.91          9.895          36.11          49.22         -4.529          6.858          112.1           12.3          67.27          137.6          145.2
   0.04528              -50.91          9.893          36.11          49.22          -4.53          6.858          112.1           12.3          67.25          137.6          145.2
   0.09056              -50.91          9.891          36.12          49.23          -4.53          6.857          112.1           12.3          67.23          137.6          145.2
    0.1358              -50.91          9.889          36.12          49.23          -4.53          6.857          112.1          12.29          67.21          137.6          145.2
    0.1811              -50.91          9.887          36.13          49.23         -4.531          6.857          112.1          12.29          67.18          137.5          145.2
    0.2264               -50.9          9.884          36.14          49.23         -4.531          6.856          112.1          12.28          67.16          137.5          145.2
    0.2717               -50.9          9.881          36.15          49.23         -4.531          6.856          112.1          12.28          67.13          137.5          145.2
     0.317               -50.9          9.879          36.15          49.23         -4.532          6.856          112.1          12.27           67.1          137.5          145.2
    0.3622               -50.9          9.875          36.16          49.23         -4.532          6.855          112.1          12.26          67.07          137.5          145.1
    0.4075              -50.89          9.872          36.17          49.23         -4.533          6.855          112.1          12.26          67.04          137.5          145.1
    0.4528              -50.89          9.869          36.18          49.24         -4.533          6.854          112.1          12.25           67.0          137.4          145.1
    0.4981              -50.89          9.865          36.19          49.24         -4.534          6.854          112.1          12.24          66.97          137.4          145.1
    0.5434              -50.89          9.861           36.2          49.24         -4.534          6.853          112.1          12.24          66.93          137.4          145.1
    0.5887              -50.88          9.856          36.22          49.24         -4.535          6.853          112.1          12.23          66.88          137.4          145.1
    0.6339              -50.88          9.852          36.23          49.24         -4.536          6.852          112.1          12.22          66.83          137.3          145.0
    0.6792              -50.87          9.847          36.25          49.25         -4.536          6.851          112.1          12.21          66.78          137.3          145.0
    0.7245              -50.87          9.841          36.26          49.25         -4.537          6.851          112.2           12.2          66.73          137.3          145.0
    0.7698              -50.86          9.835          36.28          49.25         -4.538           6.85          112.2          12.18          66.66          137.2          145.0
    0.8151              -50.86          9.828           36.3          49.25         -4.539          6.849          112.2          12.17           66.6          137.2          144.9
    0.8603              -50.85          9.821          36.32          49.26          -4.54          6.848          112.2          12.16          66.52          137.2          144.9
    0.9056              -50.85          9.813          36.34          49.26         -4.541          6.847          112.2          12.14          66.44          137.1          144.9
    0.9509              -50.84          9.804          36.37          49.27         -4.542          6.846          112.2          12.12          66.35          137.1          144.8
    0.9962              -50.83          9.794           36.4          49.27         -4.544          6.844          112.2           12.1          66.26          137.0          144.8
     1.041              -50.82          9.784          36.43          49.28         -4.545          6.843          112.2          12.08          66.15          137.0          144.8
     1.087              -50.81          9.772          36.46          49.28         -4.547          6.841          112.2          12.06          66.03          136.9          144.7
     1.132               -50.8          9.758           36.5          49.29         -4.549           6.84          112.3          12.03          65.89          136.8          144.6
     1.177              -50.79          9.743          36.54          49.29         -4.551          6.838          112.3           12.0          65.74          136.7          144.6
     1.223              -50.77          9.726          36.59           49.3         -4.554          6.835          112.3          11.97          65.57          136.6          144.5
     1.268              -50.76          9.707          36.65          49.31         -4.556          6.833          112.3          11.93          65.38          136.5          144.4
     1.313              -50.74          9.686          36.71          49.32         -4.559           6.83          112.4          11.89          65.16          136.4          144.3
     1.358              -50.72          9.661          36.78          49.33         -4.563          6.827          112.4          11.84          64.92          136.3          144.2
     1.404               -50.7          9.633          36.86          49.35         -4.567          6.823          112.4          11.78          64.63          136.1          144.1
     1.449              -50.67            9.6          36.96          49.36         -4.572          6.819          112.5          11.72           64.3          135.9          144.0
     1.494              -50.64          9.562          37.07          49.38         -4.577          6.813          112.5          11.64          63.92          135.7          143.8
      1.54               -50.6          9.517          37.19           49.4         -4.583          6.808          112.6          11.55          63.47          135.5          143.6
     1.585              -50.56          9.465          37.35          49.42         -4.591          6.801          112.7          11.45          62.95          135.2          143.4
      1.63               -50.5          9.403          37.53          49.45           -4.6          6.792          112.8          11.33          62.32          134.8          143.2
     1.675              -50.44          9.328          37.74          49.49          -4.61          6.782          112.9          11.18          61.57          134.4          142.8
     1.721              -50.37          9.238           38.0          49.53         -4.623           6.77          113.0           11.0          60.66          133.9          142.5
     1.766              -50.27          9.127          38.32          49.58         -4.639          6.756          113.2          10.78          59.55          133.2          142.0
     1.811              -50.16          8.991          38.71          49.65         -4.658          6.737          113.3          10.51          58.18          132.5          141.4
     1.857              -50.02          8.821           39.2          49.73         -4.683          6.715          113.6          10.17          56.48          131.5          140.7
     1.902              -49.84          8.607          39.82          49.83         -4.713          6.686          113.9          9.748          54.33          130.3          139.8
     1.947              -49.62          8.335           40.6          49.95         -4.752           6.65          114.3          9.208          51.59          128.8          138.7
     1.992              -49.33          7.987          41.61          50.12         -4.802          6.604          114.8          8.517          48.09          126.8          137.2
     2.038              -48.95           7.54          42.89          50.33         -4.865          6.544          115.4          7.631           43.6          124.3          135.3
     2.083              -48.48          6.969          44.54          50.59         -4.947          6.468          116.2          6.498          37.87          121.0          132.9
     2.128              -47.88          6.251          46.61          50.93         -5.049          6.372          117.2          5.075          30.65          117.0          129.9
     2.173              -47.16          5.377          49.13          51.34         -5.174          6.256          118.4          3.339          21.87          112.0          126.2
     2.219              -46.31          4.363          52.05          51.81         -5.318          6.121          119.9          1.328          11.68          106.3          122.0
     2.264               -45.4          3.265          55.22          52.33         -5.475          5.975          121.4        -0.8496         0.6469          100.1          117.3
     2.309              -44.49          2.167          58.38          52.84         -5.632          5.828          123.0         -3.027         -10.38          93.87          112.7
     2.355              -43.64          1.154           61.3          53.32         -5.776          5.693          124.4         -5.039         -20.57          88.13          108.5
       2.4              -42.92         0.2789          63.82          53.73         -5.901          5.577          125.6         -6.774         -29.36          83.18          104.8
     2.445              -42.32        -0.4389          65.89          54.06         -6.003          5.481          126.6         -8.198         -36.57          79.12          101.8
      2.49              -41.84          -1.01          67.54          54.33         -6.085          5.405          127.4          -9.33         -42.31          75.89          99.37
     2.536              -41.47         -1.457          68.83          54.54         -6.148          5.346          128.1         -10.22          -46.8          73.36          97.49
     2.581              -41.18         -1.805          69.83           54.7         -6.198          5.299          128.6         -10.91          -50.3          71.39          96.03
     2.626              -40.96         -2.077          70.62          54.83         -6.237          5.263          128.9         -11.45         -53.03          69.85          94.89
     2.672              -40.78         -2.291          71.23          54.93         -6.267          5.234          129.3         -11.87         -55.18          68.64          93.99
     2.717              -40.64         -2.461          71.72          55.01         -6.292          5.212          129.5         -12.21         -56.89          67.68          93.27
     2.762              -40.52         -2.597          72.11          55.07         -6.311          5.194          129.7         -12.48         -58.26          66.91           92.7
     2.807              -40.43         -2.707          72.43          55.12         -6.327          5.179          129.8          -12.7         -59.37          66.28          92.24
     2.853              -40.36         -2.798          72.69          55.17          -6.34          5.167          130.0         -12.88         -60.28          65.77          91.86
     2.898               -40.3         -2.872          72.91           55.2          -6.35          5.157          130.1         -13.03         -61.03          65.35          91.54
